<?xml version="1.0" standalone="no"?>
<!DOCTYPE svg PUBLIC "-//W3C//DTD SVG 20010904//EN"
 "http://www.w3.org/TR/2001/REC-SVG-20010904/DTD/svg10.dtd">
<svg version="1.0" xmlns="http://www.w3.org/2000/svg"
 width="896.000000pt" height="896.000000pt" viewBox="0 0 896.000000 896.000000"
 preserveAspectRatio="xMidYMid meet">
<metadata>
Created by potrace 1.14, written by Peter Selinger 2001-2017
</metadata>
<g transform="translate(0.000000,896.000000) scale(0.100000,-0.100000)"
fill="#000000" stroke="none">
<path d="M4495 8944 c-1236 -142 -2313 -890 -2869 -1994 -177 -350 -285 -683
-350 -1080 l-22 -135 -308 -415 c-169 -228 -313 -419 -320 -425 -15 -12 -85
-125 -115 -183 -76 -148 -113 -364 -92 -538 28 -247 125 -442 311 -624 132
-130 290 -222 448 -259 l52 -13 0 -243 c0 -360 23 -536 97 -735 178 -478 529
-823 1012 -994 l116 -41 3 -633 2 -632 2240 0 2240 0 0 1119 0 1119 78 55
c331 232 651 553 884 888 378 542 595 1155 649 1834 13 164 7 519 -11 670
-101 851 -462 1599 -1059 2195 -291 290 -610 520 -965 694 -480 236 -937 352
-1485 376 -275 12 -387 11 -536 -6z m665 -815 c853 -74 1630 -536 2109 -1253
242 -363 400 -783 458 -1221 21 -161 23 -522 4 -680 -75 -631 -338 -1193 -767
-1644 -210 -221 -504 -440 -771 -575 l-73 -36 0 -955 0 -955 -1420 0 -1420 0
0 599 c0 330 -3 606 -6 615 -5 14 -38 16 -263 16 -219 0 -268 3 -337 20 -234
56 -427 209 -533 423 -91 181 -91 183 -91 945 l0 652 -330 0 c-355 0 -360 1
-418 54 -59 53 -83 167 -49 234 8 17 192 264 409 549 l394 518 12 135 c15 161
58 381 107 546 264 875 928 1571 1790 1873 235 83 446 126 750 155 57 5 310
-3 445 -15z"/>
<path d="M5285 7146 c-174 -34 -334 -131 -436 -263 -41 -53 -42 -53 -96 -53
-93 0 -202 -28 -303 -77 -76 -37 -108 -60 -168 -121 -115 -116 -191 -248 -222
-387 -27 -119 -8 -323 40 -431 l19 -44 -43 -92 c-67 -144 -86 -258 -66 -393
36 -236 167 -430 371 -548 63 -37 182 -76 251 -84 l58 -6 31 -56 c48 -85 169
-198 264 -248 138 -71 209 -88 365 -87 120 0 144 3 214 28 141 48 258 129 342
236 l45 57 92 6 c178 12 316 75 447 207 148 148 209 287 218 493 5 125 -9 211
-49 305 l-20 45 40 81 c58 117 74 195 69 341 -4 95 -10 137 -31 200 -86 259
-294 441 -564 492 l-90 17 -24 45 c-13 25 -64 87 -114 136 -73 74 -106 99
-175 132 -47 23 -112 49 -145 58 -86 22 -236 27 -320 11z m319 -211 c82 -28
163 -82 212 -138 38 -46 42 -57 17 -57 -10 0 -162 -38 -338 -85 -258 -68 -324
-89 -340 -108 -13 -15 -53 -146 -119 -397 -55 -206 -101 -377 -103 -380 -2 -2
-48 41 -102 95 l-99 100 90 330 c117 429 139 474 286 572 152 102 329 126 496
68z m-884 -309 c0 -2 -40 -151 -90 -332 -49 -181 -90 -340 -90 -354 0 -19 66
-91 287 -312 158 -158 284 -290 281 -293 -3 -4 -64 -22 -135 -41 l-128 -34
-255 257 c-271 273 -298 309 -335 437 -24 82 -22 213 4 296 55 172 178 302
341 357 57 20 120 30 120 19z m1451 -72 c143 -42 268 -146 331 -275 46 -94 62
-177 55 -282 -5 -77 -31 -177 -46 -177 -3 0 -114 107 -245 239 -185 185 -247
241 -276 250 -34 10 -69 3 -411 -89 -206 -55 -376 -99 -379 -98 -3 2 9 62 28
134 l34 130 232 63 c127 35 278 76 336 92 125 33 254 38 341 13z m5 -676 c212
-215 255 -264 287 -324 144 -277 40 -598 -238 -735 -71 -35 -185 -63 -185 -45
0 3 41 155 91 338 59 219 88 341 84 358 -4 15 -120 139 -288 307 -154 155
-279 284 -276 286 8 7 234 65 255 66 14 1 97 -76 270 -251z m-599 30 c62 -62
113 -119 113 -127 0 -23 -72 -294 -81 -306 -4 -6 -78 -29 -163 -50 l-156 -40
-106 105 c-58 58 -109 112 -113 120 -5 9 9 78 34 169 l41 155 155 42 c85 23
156 43 158 43 2 1 55 -49 118 -111z m443 -459 c0 -41 -174 -650 -202 -709 -39
-82 -149 -193 -234 -238 -153 -80 -320 -82 -479 -7 -68 32 -182 126 -187 154
-2 9 88 37 331 101 222 58 339 94 352 106 12 13 53 147 119 394 55 206 102
381 105 389 7 18 195 -166 195 -190z m-1260 -349 c32 -11 66 -4 409 89 206 55
376 99 378 97 2 -2 -11 -64 -30 -137 l-34 -134 -319 -88 c-253 -70 -338 -90
-409 -94 -159 -10 -291 41 -406 156 -134 134 -187 317 -144 499 29 124 7 134
279 -136 167 -167 252 -244 276 -252z"/>
</g>
</svg>
